PathFileType	4	(X/Y/Z)	..\data\2014001\dynamic\2014001_C5_01.trc
DataRate	CameraRate	NumFrames	NumMarkers	Units	OrigDataRate	OrigDataStartFrame	OrigNumFrames
100.000000	100.000000	4	52	mm	100.000000	15	125
Frame#	Time	L_IAS			L_IPS			R_IPS			R_IAS			L_FTC			L_FLE			L_FME			L_FAX			L_TTC			L_FAL			L_TAM			L_FCC			L_FM1			L_FM2			L_FM5			R_FTC			R_FLE			R_FME			R_FAX			R_TTC			R_FAL			R_TAM			R_FCC			R_FM1			R_FM2			R_FM5			CV7			TV10			SXS			SJN			L_SIA			L_SRS			L_SAA			L_SAE			L_HLE			L_HME			L_UOA			L_RSP			L_UHE			L_HM2			L_HM5			R_SIA			R_SRS			R_SAA			R_SAE			R_HLE			R_HME			R_UOA			R_RSP			R_UHE			R_HM2			R_HM5			
		X1	Y1	Z1	X2	Y2	Z2	X3	Y3	Z3	X4	Y4	Z4	X5	Y5	Z5	X6	Y6	Z6	X7	Y7	Z7	X8	Y8	Z8	X9	Y9	Z9	X10	Y10	Z10	X11	Y11	Z11	X12	Y12	Z12	X13	Y13	Z13	X14	Y14	Z14	X15	Y15	Z15	X16	Y16	Z16	X17	Y17	Z17	X18	Y18	Z18	X19	Y19	Z19	X20	Y20	Z20	X21	Y21	Z21	X22	Y22	Z22	X23	Y23	Z23	X24	Y24	Z24	X25	Y25	Z25	X26	Y26	Z26	X27	Y27	Z27	X28	Y28	Z28	X29	Y29	Z29	X30	Y30	Z30	X31	Y31	Z31	X32	Y32	Z32	X33	Y33	Z33	X34	Y34	Z34	X35	Y35	Z35	X36	Y36	Z36	X37	Y37	Z37	X38	Y38	Z38	X39	Y39	Z39	X40	Y40	Z40	X41	Y41	Z41	X42	Y42	Z42	X43	Y43	Z43	X44	Y44	Z44	X45	Y45	Z45	X46	Y46	Z46	X47	Y47	Z47	X48	Y48	Z48	X49	Y49	Z49	X50	Y50	Z50	X51	Y51	Z51	X52	Y52	Z52	

16	0.15	-25.94105529785157	839.079772949219	-322.8711242675782	-216.9673156738282	872.7684326171877	-280.2477111816407	-232.5245971679688	863.9114990234377	-192.0070953369141	-72.38909912109376	814.8052368164065	-94.29270172119142	-80.95362091064455	758.5701293945314	-399.2344970703126	76.15340423583986	437.8773498535157	-343.1752319335938	81.69343566894533	441.2315368652345	-226.6878509521485	68.97270965576173	374.8442993164063	-345.8439331054688	126.0001220703125	364.8775329589844	-290.2143859863282	41.22604751586915	59.32915115356447	-297.0413513183594	57.7141799926758	68.46321105957033	-207.7054595947266	-10.49825763702393	19.85701370239258	-254.2696685791016	175.258773803711	22.6657772064209	-219.3907623291016	184.2237243652344	31.9787826538086	-281.3629760742188	131.8413238525391	18.93033790588379	-327.8846130371094	-189.462631225586	724.8878173828126	-58.23170089721681	-225.7619171142579	386.3988342285157	-54.84986495971681	-186.6987762451172	351.6868896484376	-166.3882598876953	-277.9287719726563	353.8484191894532	-54.64544677734376	-231.1747741699219	297.1753540039063	-88.73293304443361	-547.8646240234376	219.018783569336	-139.1932373046875	-500.5190429687501	178.4808654785157	-210.4011383056641	-582.3867797851564	229.8070831298829	-208.7833557128907	-532.2017822265626	56.52912521362306	-176.1610260009766	-540.2111206054689	68.82476806640626	-116.5121765136719	-577.3522949218751	120.7359085083008	-95.76049041748048	-230.6244354248047	1324.817504882813	-236.9165496826172	-260.7250366210938	1081.557983398438	-237.4473724365235	-25.79907035827637	1127.547241210938	-221.7795867919922	-88.06961059570314	1282.154663085938	-230.8260498046876	-258.4699707031251	1128.882202148438	-332.1947631835938	-254.4336242675782	1261.983032226563	-329.4968261718751	-169.7838439941407	1269.681640625	-428.2895812988282	-132.4412841796875	1282.21875	-415.3519897460939	-213.5295867919922	1024.897827148438	-514.1050415039064	-249.0952148437501	992.306579589844	-440.9685058593751	-252.0991668701172	1006.483825683594	-489.175506591797	-237.0745849609376	776.9141235351565	-535.4048461914064	-274.7494201660157	813.1408691406252	-597.6533813476564	-258.6752319335938	692.0278320312501	-560.2066650390626	-320.8795166015626	753.4578857421876	-617.7023315429689	-271.6633300781251	1129.105224609375	-120.2285385131836	-269.1631774902344	1257.481079101563	-146.5306396484375	-192.4319458007813	1271.680786132813	-40.69718933105469	-144.9174499511719	1284.598266601563	-53.53951263427736	-120.4610366821289	990.491638183594	51.79703521728517	-150.079574584961	956.379089355469	-18.3264331817627	-136.3504486083985	945.9501953125002	29.19524002075196	76.38508605957033	925.7752685546877	-64.12519836425783	73.78244018554689	881.521667480469	3.573554754257203	163.3698425292969	909.921569824219	-79.9602508544922	131.5176696777344	830.719665527344	-22.40355682373047	
17	0.16	-7.559170722961428	842.627380371094	-325.6474609375001	-197.3925170898438	876.8232421875002	-280.6106872558594	-212.7298126220704	867.292175292969	-192.3143463134766	-51.50404357910158	817.5164184570315	-96.6428146362305	-63.04227828979494	762.5073852539064	-400.9270019531251	87.07863616943361	437.4552612304689	-343.0067443847657	91.56285858154298	440.6434020996095	-226.1553955078126	78.07116699218751	374.7052917480469	-345.7682495117188	134.3551330566407	363.3319396972657	-289.7688903808594	41.72470855712891	60.189266204834	-296.9045104980469	57.93417358398439	69.04220581054689	-207.5064239501954	-10.25470542907715	20.57274055480957	-254.4377899169922	174.9527130126953	23.33504676818848	-219.0533905029297	184.1312713623047	33.02884674072266	-281.0129699707032	132.0092315673828	20.50365638732911	-327.8424072265626	-165.7565612792969	725.3773803710939	-59.66329193115236	-182.7494354248047	385.0200195312501	-54.67044067382814	-144.9216918945313	352.3560180664063	-167.7151641845703	-233.6814880371094	352.6088867187501	-53.70178985595705	-187.1167144775391	296.6210327148438	-89.70970916748048	-504.3275146484376	216.9290008544922	-135.0287475585938	-458.1519470214845	177.3051910400391	-207.6591949462891	-542.5515747070314	225.1888427734376	-203.7637939453126	-481.8486328125001	56.83276748657228	-169.4219512939453	-488.3921813964845	70.42490386962892	-109.7914962768555	-526.7460327148439	120.5780258178711	-88.98933410644533	-208.4744720458985	1328.956787109375	-236.8319396972657	-239.7325134277344	1085.90673828125	-237.5455017089844	-4.755739688873292	1130.74072265625	-221.6980438232422	-66.2067108154297	1285.648071289063	-230.4472961425782	-236.6363525390626	1132.891845703125	-333.2706298828126	-232.5128631591797	1266.306030273438	-330.1027832031251	-146.2806549072266	1272.78564453125	-428.7188110351564	-109.1679153442383	1285.618896484375	-414.9118957519532	-183.1398315429688	1025.557006835938	-514.0160522460939	-219.1745758056641	992.342468261719	-441.3806762695314	-221.939682006836	1005.609375	-489.9226379394532	-195.6697387695313	776.1453247070315	-532.0315551757814	-233.366439819336	809.6497802734377	-595.5709228515626	-212.7048034667969	690.3312988281251	-556.2390136718751	-276.1260986328126	747.9492187500001	-615.8512573242189	-251.1013183593751	1133.34521484375	-120.9501419067383	-247.3549499511719	1261.76806640625	-146.5892028808594	-171.0494232177735	1274.906127929688	-40.57709121704102	-123.533561706543	1287.51708984375	-52.91273880004884	-105.9766387939453	991.5266113281252	50.4402313232422	-135.9947662353516	959.115905761719	-20.18062210083008	-123.5130767822266	948.249938964844	27.48787689208985	88.69756317138673	914.528015136719	-61.02897262573244	82.1893768310547	871.2092895507815	6.852547645568849	175.0097961425782	893.6212158203127	-74.61273193359376	137.3971862792969	817.367858886719	-17.0302906036377	
18	0.17	10.74490547180176	846.3959960937502	-328.1784667968751	-177.779541015625	881.3330688476565	-281.1594848632813	-193.0349426269532	871.3477172851565	-192.8858337402344	-31.12189102172852	820.8966064453127	-98.75263977050784	-45.14802551269532	766.6936645507814	-402.5000915527345	96.52225494384768	436.952362060547	-343.0301818847657	99.99892425537112	439.8891601562501	-225.811019897461	85.6153030395508	374.4322814941407	-345.8880615234376	141.248046875	361.7445983886719	-289.5916442871094	41.84652709960938	60.97694778442384	-296.8697814941407	57.89530181884767	69.72020721435548	-207.4456024169922	-10.08345699310303	21.0854721069336	-254.5875091552735	174.4298248291016	24.71828842163087	-219.0565643310547	183.6251525878907	34.61701583862305	-280.8775329589844	132.0377502441407	22.17614364624024	-327.7873535156251	-142.7296447753907	726.8197021484376	-61.29734420776369	-139.801986694336	385.5320739746095	-55.22165679931642	-103.0557174682617	354.7741088867188	-169.6158294677735	-189.3934173583985	352.8462524414063	-53.51998901367189	-142.4190673828125	297.7206726074219	-91.16634368896486	-458.9070129394532	212.7291717529297	-130.810775756836	-413.4278259277345	174.5379791259766	-204.7168426513672	-500.8006286621095	217.7144470214844	-198.5481872558594	-427.3997497558595	56.00394439697267	-162.8522644042969	-432.6271362304689	70.92058563232423	-103.3589553833008	-472.9255676269532	118.2578353881836	-82.28067779541017	-186.6609954833985	1333.476440429688	-236.4906616210938	-219.0484008789063	1090.671752929688	-237.4315948486329	16.02093887329102	1134.405395507813	-221.5948944091797	-44.6842155456543	1289.548950195313	-229.9288635253907	-215.2427673339844	1137.306030273438	-334.0409545898438	-211.0782165527344	1270.997680664063	-330.3508300781251	-123.4425430297852	1276.371337890625	-428.8196411132814	-86.57141876220705	1289.503662109375	-414.2532958984376	-152.9965515136719	1026.899291992188	-513.8245239257814	-189.4368286132813	992.934265136719	-441.8106994628907	-191.9299011230469	1005.226989746094	-490.6820678710939	-153.3900451660157	776.4902343750002	-527.9615478515626	-191.0623931884766	806.9238891601565	-592.8345336914064	-165.2246246337891	689.9835205078126	-551.3820190429689	-229.9502716064454	743.0814208984376	-613.1214599609376	-230.7928466796876	1137.975830078125	-121.4059295654297	-225.7891235351563	1266.375	-146.3977508544922	-149.9189147949219	1278.499145507813	-40.28281402587891	-102.4195404052735	1290.826171875	-52.10372543334962	-91.6052932739258	993.064147949219	48.94313430786134	-121.9629898071289	962.4507446289065	-22.21244430541993	-110.8528823852539	951.1873779296877	25.57143211364747	100.0037307739258	903.2214355468752	-57.52132797241212	89.28759002685548	861.2001953125002	10.44149398803711	185.1658325195313	877.0773925781252	-68.52185058593751	141.5413818359375	804.3001708984377	-11.25936126708985	
19	0.18	29.07399559020997	850.3055419921877	-330.4568481445313	-158.0733947753907	886.2258300781252	-281.8618774414063	-173.3424072265625	875.9702148437502	-193.6543579101563	-11.08584213256836	824.8576660156252	-100.6121520996094	-27.23657989501954	771.0266113281252	-403.948699951172	104.5809631347657	436.3793029785157	-343.3107604980469	107.2037353515625	439.005828857422	-225.7591247558594	91.73988342285158	374.0387268066407	-346.2522583007813	146.833984375	360.1200561523438	-289.7512817382813	41.64366912841798	61.60478973388673	-296.9310913085938	57.65472412109376	70.38447570800783	-207.5189056396485	-10.02352523803711	21.37722396850586	-254.7137145996094	173.7564697265625	26.51822662353516	-219.3752746582032	182.7948455810547	36.43581008911134	-280.9424133300782	131.9276428222657	23.69436264038086	-327.7372741699219	-120.2988662719727	729.1586914062501	-63.04721450805665	-97.22851562500003	387.946502685547	-56.42711639404298	-61.41597747802736	358.9272766113282	-171.9721984863282	-145.3922576904297	354.5436401367188	-54.04269409179689	-97.41470336914065	300.4971008300782	-93.01776123046876	-411.7892456054689	206.5340881347657	-126.6794357299805	-366.5057067871094	170.2230377197266	-201.6672058105469	-457.0778808593751	207.5923309326172	-193.3124694824219	-369.5087890625001	54.15391540527345	-156.633041381836	-373.6834106445313	70.37655639648439	-97.4069747924805	-416.5047607421876	114.0087509155274	-75.86977386474611	-165.1491851806641	1338.26123046875	-235.9399566650391	-198.5842437744141	1095.7373046875	-237.1267395019532	36.5980567932129	1138.4599609375	-221.4781951904297	-23.46044921875	1293.774658203125	-229.2976074218751	-194.2279357910157	1142.022216796875	-334.5416564941407	-190.0738830566407	1275.94140625	-330.2744445800782	-101.2402801513672	1280.346801757813	-428.619842529297	-64.61679840087892	1293.7724609375	-413.4170532226564	-123.1800842285157	1028.897583007813	-513.5640869140626	-159.9526519775391	994.059509277344	-442.2958068847657	-162.1241760253907	1005.333923339844	-491.4885559082032	-110.4188766479492	778.0939941406252	-523.2028808593751	-147.9922485351563	805.1174316406252	-589.4271240234376	-116.4304275512696	691.2222900390626	-545.6221923828126	-182.5042877197266	739.0535888671876	-609.4484863281251	-210.6602325439454	1142.885131835938	-121.6209945678711	-204.4226226806641	1271.181762695313	-146.0055847167969	-129.0100402832032	1282.396728515625	-39.86042022705079	-81.53723907470705	1294.464599609375	-51.158016204834	-77.27223205566408	995.0967407226565	47.32556533813477	-107.8951492309571	966.333190917969	-24.38473510742188	-98.258659362793	954.736267089844	23.4798641204834	110.3193588256836	892.0667114257815	-53.6161460876465	95.14064788818361	851.721130371094	14.29833698272705	193.8022613525391	860.536315917969	-61.75474166870119	144.0051879882813	791.7888183593752	-5.170605659484864	
